<?xml version="1.0" standalone="no"?>
<!DOCTYPE svg PUBLIC "-//W3C//DTD SVG 20010904//EN"
 "http://www.w3.org/TR/2001/REC-SVG-20010904/DTD/svg10.dtd">
<svg version="1.0" xmlns="http://www.w3.org/2000/svg"
 width="192.000000pt" height="192.000000pt" viewBox="0 0 192.000000 192.000000"
 preserveAspectRatio="xMidYMid meet">

<g transform="translate(0.000000,192.000000) scale(0.100000,-0.100000)"
fill="#000000" stroke="none">
<path d="M795 1480 c-3 -5 -1 -10 4 -10 6 0 11 5 11 10 0 6 -2 10 -4 10 -3 0
-8 -4 -11 -10z"/>
<path d="M740 1393 c0 -28 -4 -55 -10 -58 -5 -3 -10 -14 -10 -24 0 -10 -9 -26
-20 -36 -16 -14 -23 -15 -34 -6 -13 11 -14 8 -6 -20 5 -18 21 -50 35 -70 14
-21 25 -50 25 -64 0 -28 42 -129 59 -139 15 -9 14 -5 -5 32 -28 57 -8 117 41
126 55 11 88 53 108 137 9 41 17 97 16 124 l-1 50 -9 -40 c-15 -62 -76 -115
-132 -115 -37 0 -49 22 -42 73 4 27 3 53 -4 64 -8 14 -10 8 -11 -34z"/>
<path d="M981 1392 c-1 -65 25 -178 51 -214 10 -15 32 -29 51 -33 76 -16 94
-54 62 -132 -17 -41 -12 -56 10 -27 21 28 45 103 45 140 0 18 5 36 10 39 12 7
50 79 50 94 0 6 -6 8 -13 5 -16 -6 -46 25 -54 57 -3 13 -9 47 -12 74 -6 37 -9
45 -15 32 -5 -10 -6 -37 -3 -60 8 -57 -11 -82 -53 -73 -62 12 -105 56 -121
121 -6 25 -7 21 -8 -23z"/>
<path d="M927 1153 c-4 -3 -7 -15 -7 -26 0 -11 -9 -34 -20 -53 -25 -39 -16
-48 50 -51 25 -2 56 -4 70 -5 20 -2 26 2 28 22 2 21 -3 28 -31 38 -22 8 -39
24 -50 47 -16 34 -27 42 -40 28z"/>
<path d="M658 1029 l-3 -54 -17 50 c-9 28 -17 43 -17 34 -2 -38 23 -137 45
-180 13 -26 32 -71 43 -99 11 -29 32 -70 46 -91 35 -50 63 -60 30 -11 -26 39
-44 102 -29 102 5 -1 36 -6 69 -13 53 -11 60 -16 68 -42 5 -17 20 -38 33 -48
25 -18 25 -18 18 7 -3 13 -3 35 1 47 7 22 8 22 21 4 7 -10 11 -22 8 -26 -14
-24 53 10 80 40 11 12 29 21 42 21 12 0 34 4 48 10 23 8 26 7 26 -13 0 -26
-37 -90 -48 -83 -4 2 -8 -7 -8 -21 l-2 -25 25 24 c29 26 113 197 137 278 20
67 21 111 1 60 l-13 -35 -2 55 -2 55 -14 -58 c-15 -65 -40 -117 -54 -117 -12
0 -13 -3 5 45 8 22 14 54 14 70 0 24 -3 20 -19 -25 -21 -62 -70 -113 -103
-108 -14 2 -29 17 -41 41 -12 26 -22 35 -30 29 -6 -5 -25 -14 -43 -20 -27 -9
-36 -8 -57 9 l-24 19 -12 -34 c-6 -19 -17 -40 -25 -46 -29 -24 -86 18 -125 93
-21 39 -22 40 -16 11 3 -18 8 -43 12 -58 10 -41 -12 -31 -30 14 -9 22 -19 62
-22 87 -7 65 -12 65 -16 2z"/>
<path d="M800 614 c-25 -7 -50 -12 -57 -10 -6 3 -19 -2 -30 -9 -25 -20 -32
-18 -26 5 3 11 1 20 -4 20 -12 0 -48 -43 -45 -54 2 -5 -2 -22 -7 -37 -12 -34
-8 -36 17 -9 l19 20 38 -26 39 -26 18 24 c9 12 18 28 18 34 0 7 9 22 20 35
l21 24 -19 -40 c-23 -50 -19 -75 13 -75 17 0 30 10 42 33 16 30 18 30 21 10 2
-13 6 -24 10 -24 31 -6 53 -5 58 3 3 5 11 5 19 -2 18 -15 52 -7 71 16 14 18
15 18 4 -4 -19 -38 -2 -39 31 -1 l30 34 -6 -27 c-8 -42 11 -33 34 15 34 69 27
102 -17 77 -9 -5 -34 -16 -55 -24 -22 -9 -41 -25 -46 -40 -10 -25 -31 -44 -31
-28 0 11 39 63 60 79 13 10 13 12 -2 18 -12 5 -29 -2 -49 -19 -17 -14 -35 -26
-40 -26 -5 0 -9 -6 -9 -13 0 -8 -9 -22 -20 -32 -30 -27 -24 -4 10 43 33 46 19
58 -17 15 l-23 -28 6 28 c4 17 2 27 -5 27 -6 0 -11 -4 -11 -10 0 -12 -62 -101
-68 -96 -2 2 2 15 9 28 19 33 38 88 30 87 -3 0 -26 -7 -51 -15z m290 -17 c0
-2 -10 -12 -22 -23 l-23 -19 19 23 c18 21 26 27 26 19z m-334 -33 c-3 -9 -6
-20 -6 -25 0 -14 -36 -11 -49 4 -14 18 5 37 37 37 18 0 23 -4 18 -16z"/>
<path d="M426 595 c-35 -32 -29 -51 15 -48 l34 2 -48 -25 c-55 -29 -55 -52 0
-29 20 9 43 21 51 28 12 9 16 9 20 -1 3 -9 8 -10 17 -2 9 8 14 6 19 -5 9 -25
40 -17 69 20 15 19 23 35 18 35 -5 0 -13 -4 -16 -10 -3 -5 -15 -15 -26 -21
-20 -10 -20 -9 2 20 12 16 28 32 36 35 15 6 9 26 -9 26 -5 0 -23 -14 -39 -31
l-29 -31 6 33 c5 34 5 34 -13 13 -10 -11 -36 -23 -58 -27 -37 -6 -38 -5 -21 8
11 8 23 15 28 15 4 0 8 5 8 10 0 19 -37 10 -64 -15z"/>
<path d="M1158 566 c-16 -31 -28 -61 -28 -66 0 -16 32 -11 53 7 18 17 19 17
28 0 13 -22 24 -22 50 4 l20 20 6 -20 c6 -25 44 -28 64 -5 11 14 13 14 21 0
11 -20 42 -20 59 0 11 14 13 14 21 0 5 -9 20 -16 33 -16 30 0 74 65 56 83 -9
9 -16 8 -31 -1 -24 -15 -25 -9 -4 23 15 23 15 25 1 25 -9 0 -20 -7 -25 -16 -5
-9 -25 -22 -45 -29 l-36 -12 16 24 c21 31 6 44 -17 16 -10 -13 -27 -23 -37
-23 -10 0 -25 -6 -33 -12 -8 -8 -7 -3 3 14 9 15 17 30 17 33 0 10 -19 5 -34
-11 -9 -8 -16 -11 -16 -6 0 17 -29 22 -55 10 -14 -6 -25 -19 -25 -29 0 -18
-40 -63 -48 -54 -3 2 1 18 8 34 24 58 5 64 -22 7z m112 10 c0 -8 -9 -24 -21
-37 l-20 -24 7 24 c5 21 23 49 32 51 1 0 2 -6 2 -14z m72 -48 c-7 -7 -12 -8
-12 -2 0 14 12 26 19 19 2 -3 -1 -11 -7 -17z m80 0 c-7 -7 -12 -8 -12 -2 0 14
12 26 19 19 2 -3 -1 -11 -7 -17z m98 18 c0 -2 -8 -10 -17 -17 -16 -13 -17 -12
-4 4 13 16 21 21 21 13z"/>
</g>
</svg>
